<svg xmlns="http://www.w3.org/2000/svg" width="100%" height="100%" viewBox="0 0 1200 800" preserveAspectRatio="xMidYMid slice">
  <defs>
    <style>
      .wave { fill: none; stroke: #014584; stroke-width: 1.5; opacity: 0.06; }
    </style>
  </defs>
  <g>
    <!-- Flowing wave lines -->
    <path class="wave" d="M-100,100 C100,80 200,120 400,100 S600,80 800,100 S1000,120 1300,100" />
    <path class="wave" d="M-100,140 C100,120 200,160 400,140 S600,120 800,140 S1000,160 1300,140" />
    <path class="wave" d="M-100,180 C100,160 200,200 400,180 S600,160 800,180 S1000,200 1300,180" />
    
    <path class="wave" d="M-100,280 C150,250 250,310 450,280 S650,250 850,280 S1050,310 1300,280" />
    <path class="wave" d="M-100,320 C150,290 250,350 450,320 S650,290 850,320 S1050,350 1300,320" />
    <path class="wave" d="M-100,360 C150,330 250,390 450,360 S650,330 850,360 S1050,390 1300,360" />
    
    <path class="wave" d="M-100,480 C200,440 300,520 500,480 S700,440 900,480 S1100,520 1300,480" />
    <path class="wave" d="M-100,520 C200,480 300,560 500,520 S700,480 900,520 S1100,560 1300,520" />
    <path class="wave" d="M-100,560 C200,520 300,600 500,560 S700,520 900,560 S1100,600 1300,560" />
    
    <path class="wave" d="M-100,660 C250,610 350,710 550,660 S750,610 950,660 S1150,710 1300,660" />
    <path class="wave" d="M-100,700 C250,650 350,750 550,700 S750,650 950,700 S1150,750 1300,700" />
    <path class="wave" d="M-100,740 C250,690 350,790 550,740 S750,690 950,740 S1150,790 1300,740" />
  </g>
</svg>

